<svg width="4689" height="1283" xmlns="http://www.w3.org/2000/svg" xmlns:xlink="http://www.w3.org/1999/xlink" overflow="hidden"><defs><clipPath id="clip0"><rect x="0" y="-4" width="4689" height="1283"/></clipPath><clipPath id="clip1"><rect x="0" y="-5" width="1105" height="1105"/></clipPath><clipPath id="clip2"><rect x="0" y="-5" width="1105" height="1105"/></clipPath><clipPath id="clip3"><rect x="0" y="-5" width="1105" height="1105"/></clipPath></defs><g clip-path="url(#clip0)" transform="matrix(1 0 0 1 0 4)"><g clip-path="url(#clip1)"><g clip-path="url(#clip2)"><g clip-path="url(#clip3)"><path d="M643.856 566.759 414 336.903 414 203 138-4.00013 0 134 207 410 340.903 410 570.759 639.856ZM715.228 481.156C776.25 481.156 833.606 504.875 876.731 548L918.563 589.831C952.631 574.953 984.975 554.253 1013.01 526.222 1093 446.225 1120.17 333.669 1094.73 231.462 1089.98 212.056 1065.62 205.372 1051.39 219.603L890.963 380.028 744.553 355.662 720.188 209.253 880.613 48.828C894.844 34.5967 887.944 10.2311 868.322 5.27175 766.116-19.9564 653.559 7.21237 573.778 86.9936 512.325 148.447 483.431 229.522 484.941 310.381L661.969 487.409C679.434 483.312 697.547 481.156 715.228 481.156ZM491.194 657.969 368.934 535.709 40.3219 864.537C-13.5844 918.444-13.5844 1005.77 40.3219 1059.68 94.2281 1113.58 181.556 1113.58 235.463 1059.68L501.975 793.166C485.588 750.256 480.628 703.466 491.194 657.969ZM138 1013.75C109.538 1013.75 86.25 990.463 86.25 962 86.25 933.322 109.322 910.25 138 910.25 166.678 910.25 189.75 933.322 189.75 962 189.75 990.463 166.678 1013.75 138 1013.75Z" fill="#808080"/><path d="M1080.5 849.228 828 596.731C778.191 546.922 703.8 537.219 643.856 566.759L570.759 639.856C541.434 699.8 550.922 774.191 600.731 824L853.228 1076.5C884.709 1107.98 935.597 1107.98 966.863 1076.5L1080.5 962.862C1111.76 931.381 1111.76 880.494 1080.5 849.228Z" fill="#34397F"/></g></g></g><text fill="#34397F" font-family="Open Sans,Open Sans_MSFontService,sans-serif" font-weight="700" font-size="573" transform="matrix(1 0 0 1 1158.06 787)">OMSI<tspan font-size="573" x="1501.61" y="0">-</tspan><tspan font-size="573" x="1686.09" y="0">Tools</tspan></text></g></svg>