<svg width="11044" height="1283" xmlns="http://www.w3.org/2000/svg" xmlns:xlink="http://www.w3.org/1999/xlink" overflow="hidden"><defs><clipPath id="clip0"><rect x="0" y="0" width="11044" height="1283"/></clipPath><clipPath id="clip1"><rect x="0" y="0" width="1105" height="1105"/></clipPath><clipPath id="clip2"><rect x="0" y="0" width="1105" height="1105"/></clipPath><clipPath id="clip3"><rect x="0" y="0" width="1105" height="1105"/></clipPath></defs><g clip-path="url(#clip0)"><g clip-path="url(#clip1)"><g clip-path="url(#clip2)"><g clip-path="url(#clip3)"><path d="M643.856 570.759 414 340.903 414 207 138 0 0 138 207 414 340.903 414 570.759 643.856ZM715.228 485.156C776.25 485.156 833.606 508.875 876.731 552L918.563 593.831C952.631 578.953 984.975 558.253 1013.01 530.222 1093 450.225 1120.17 337.669 1094.73 235.463 1089.98 216.056 1065.62 209.372 1051.39 223.603L890.963 384.028 744.553 359.663 720.188 213.253 880.613 52.8281C894.844 38.5969 887.944 14.2313 868.322 9.27188 766.116-15.9563 653.559 11.2125 573.778 90.9938 512.325 152.447 483.431 233.522 484.941 314.381L661.969 491.409C679.434 487.313 697.547 485.156 715.228 485.156ZM491.194 661.969 368.934 539.709 40.3219 868.538C-13.5844 922.444-13.5844 1009.77 40.3219 1063.68 94.2281 1117.58 181.556 1117.58 235.463 1063.68L501.975 797.166C485.588 754.256 480.628 707.466 491.194 661.969ZM138 1017.75C109.538 1017.75 86.25 994.463 86.25 966 86.25 937.322 109.322 914.25 138 914.25 166.678 914.25 189.75 937.322 189.75 966 189.75 994.463 166.678 1017.75 138 1017.75Z" fill="#808080"/><path d="M1080.5 853.228 828 600.731C778.191 550.922 703.8 541.219 643.856 570.759L570.759 643.856C541.434 703.8 550.922 778.191 600.731 828L853.228 1080.5C884.709 1111.98 935.597 1111.98 966.863 1080.5L1080.5 966.863C1111.76 935.381 1111.76 884.494 1080.5 853.228Z" fill="#34397F"/></g></g></g><text fill="#FFFFFF" font-family="Open Sans,Open Sans_MSFontService,sans-serif" font-weight="700" font-size="573" transform="matrix(1 0 0 1 1158.06 791)">OMSI<tspan font-size="573" x="1501.61" y="0">-</tspan><tspan font-size="573" x="1686.09" y="0">Tools</tspan><tspan fill="#C00000" font-size="573" x="3630" y="0">Quickstart Guide</tspan></text></g></svg>