<svg viewBox="0 0 512 512">
  <path fill="#808080" d="M 298.6,264.7 192,158.1 V 96 L 64,0 0,64 96,192 h 62.1 L 264.7,298.6 Z M 331.7,225 c 28.3,0 54.9,11 74.9,31 l 19.4,19.4 c 15.8,-6.9 30.8,-16.5 43.8,-29.5 37.1,-37.1 49.7,-89.3 37.9,-136.7 -2.2,-9 -13.5,-12.1 -20.1,-5.5 L 413.2,178.1 345.3,166.8 334,98.9 408.4,24.5 C 415,17.9 411.8,6.6 402.7,4.3 355.3,-7.4 303.1,5.2 266.1,42.2 237.6,70.7 224.2,108.3 224.9,145.8 l 82.1,82.1 c 8.1,-1.9 16.5,-2.9 24.7,-2.9 z M 227.8,307 171.1,250.3 18.7,402.8 c -25,25 -25,65.5 0,90.5 25,25 65.5,25 90.5,0 L 232.8,369.7 c -7.6,-19.9 -9.9,-41.6 -5,-62.7 z M 64,472 c -13.2,0 -24,-10.8 -24,-24 0,-13.3 10.7,-24 24,-24 13.3,0 24,10.7 24,24 0,13.2 -10.7,24 -24,24 z"/>
  <path fill="#34397f" d="M 501.1,395.7 384,278.6 C 360.9,255.5 326.4,251 298.6,264.7 l -33.9,33.9 c -13.6,27.8 -9.2,62.3 13.9,85.4 l 117.1,117.1 c 14.6,14.6 38.2,14.6 52.7,0 l 52.7,-52.7 c 14.5,-14.6 14.5,-38.2 0,-52.7 z"/>
</svg>
