<?xml version="1.0" encoding="UTF-8" standalone="no"?>
<svg
   aria-hidden="true"
   focusable="false"
   data-prefix="fas"
   data-icon="font"
   class="svg-inline--fa fa-font fa-w-14"
   role="img"
   viewBox="0 0 512 512"
   version="1.1"
   id="svg1"
   sodipodi:docname="wFonts.svg"
   inkscape:version="1.3.2 (091e20e, 2023-11-25, custom)"
   width="512"
   height="512"
   inkscape:export-filename="wFonts.png"
   inkscape:export-xdpi="96"
   inkscape:export-ydpi="96"
   xmlns:inkscape="http://www.inkscape.org/namespaces/inkscape"
   xmlns:sodipodi="http://sodipodi.sourceforge.net/DTD/sodipodi-0.dtd"
   xmlns="http://www.w3.org/2000/svg"
   xmlns:svg="http://www.w3.org/2000/svg">
  <defs
     id="defs1" />
  <sodipodi:namedview
     id="namedview1"
     pagecolor="#505050"
     bordercolor="#eeeeee"
     borderopacity="1"
     inkscape:showpageshadow="0"
     inkscape:pageopacity="0"
     inkscape:pagecheckerboard="0"
     inkscape:deskcolor="#505050"
     inkscape:zoom="0.86662013"
     inkscape:cx="330.59468"
     inkscape:cy="233.66639"
     inkscape:window-width="2560"
     inkscape:window-height="1511"
     inkscape:window-x="3831"
     inkscape:window-y="-9"
     inkscape:window-maximized="1"
     inkscape:current-layer="svg1" />
  <path
     fill="currentColor"
     d="M 493.71429,438.85714 H 466.96 L 317.57714,24.788573 A 36.571429,36.571429 0 0 0 282.94857,7.2498015e-7 H 229.05143 A 36.571429,36.571429 0 0 0 194.42286,24.788573 L 45.04,438.85714 H 18.285714 A 18.285714,18.285714 0 0 0 0,457.14286 v 36.57143 A 18.285714,18.285714 0 0 0 18.285714,512 H 164.57143 a 18.285714,18.285714 0 0 0 18.28571,-18.28571 v -36.57143 a 18.285714,18.285714 0 0 0 -18.28571,-18.28572 h -22.37714 l 26.62857,-73.14285 h 174.35428 l 26.62857,73.14285 h -22.37714 a 18.285714,18.285714 0 0 0 -18.28571,18.28572 v 36.57143 A 18.285714,18.285714 0 0 0 347.42857,512 H 493.71429 A 18.285714,18.285714 0 0 0 512,493.71429 V 457.14286 A 18.285714,18.285714 0 0 0 493.71429,438.85714 Z M 202.11429,274.28571 256,126.29714 309.88571,274.28571 Z"
     id="path1"
     style="fill:#008aff;fill-opacity:1;stroke-width:1.14286"
     inkscape:label="main" />
</svg>
