<?xml version="1.0" encoding="UTF-8" standalone="no"?>
<svg
   viewBox="0 0 640 512"
   version="1.1"
   id="svg1"
   sodipodi:docname="iconManageUser.svg"
   inkscape:version="1.3.2 (091e20e, 2023-11-25, custom)"
   xmlns:inkscape="http://www.inkscape.org/namespaces/inkscape"
   xmlns:sodipodi="http://sodipodi.sourceforge.net/DTD/sodipodi-0.dtd"
   xmlns="http://www.w3.org/2000/svg"
   xmlns:svg="http://www.w3.org/2000/svg">
  <defs
     id="defs1" />
  <sodipodi:namedview
     id="namedview1"
     pagecolor="#505050"
     bordercolor="#eeeeee"
     borderopacity="1"
     inkscape:showpageshadow="0"
     inkscape:pageopacity="0"
     inkscape:pagecheckerboard="0"
     inkscape:deskcolor="#505050"
     inkscape:zoom="0.86662013"
     inkscape:cx="173.08622"
     inkscape:cy="302.90088"
     inkscape:window-width="2560"
     inkscape:window-height="1511"
     inkscape:window-x="3831"
     inkscape:window-y="-9"
     inkscape:window-maximized="1"
     inkscape:current-layer="svg1" />
  <!--!Font Awesome Free 6.5.2 by @fontawesome - https://fontawesome.com License - https://fontawesome.com/license/free Copyright 2024 Fonticons, Inc.-->
  <path
     d="m 436,218.2 c 0,-7 4.5,-13.3 11.3,-14.8 10.5,-2.4 21.5,-3.7 32.7,-3.7 11.2,0 22.2,1.3 32.7,3.7 6.8,1.5 11.3,7.8 11.3,14.8 v 17.7 c 0,7.8 4.8,14.8 11.6,18.7 6.8,3.9 15.1,4.5 21.8,0.6 l 13.8,-7.9 c 6.1,-3.5 13.7,-2.7 18.5,2.4 7.6,8.1 14.3,17.2 20.1,27.2 5.8,10 10.3,20.4 13.5,31 2.1,6.7 -1.1,13.7 -7.2,17.2 l -14.4,8.3 c -6.5,3.7 -10,10.9 -10,18.4 0,7.5 3.5,14.7 10,18.4 l 14.4,8.3 c 6.1,3.5 9.2,10.5 7.2,17.2 -3.3,10.6 -7.8,21 -13.5,31 -5.7,10 -12.5,19.1 -20.1,27.2 -4.8,5.1 -12.5,5.9 -18.5,2.4 l -13.8,-7.9 c -6.7,-3.9 -15.1,-3.3 -21.8,0.6 -6.8,3.9 -11.6,10.9 -11.6,18.7 v 17.7 c 0,7 -4.5,13.3 -11.3,14.8 -10.5,2.4 -21.5,3.7 -32.7,3.7 -11.2,0 -22.2,-1.3 -32.7,-3.7 -6.8,-1.5 -11.3,-7.8 -11.3,-14.8 v -17.6 c 0,-7.9 -4.9,-14.9 -11.7,-18.9 -6.8,-3.9 -15.2,-4.5 -22,-0.6 l -13.5,7.8 c -6.1,3.5 -13.7,2.7 -18.5,-2.4 -7.6,-8.1 -14.3,-17.2 -20.1,-27.2 -5.8,-10 -10.3,-20.4 -13.5,-31 -2.1,-6.7 1.1,-13.7 7.2,-17.2 l 14,-8.1 c 6.5,-3.8 10.1,-11.1 10.1,-18.6 0,-7.5 -3.5,-14.8 -10.1,-18.6 l -14,-8.1 c -6.1,-3.5 -9.2,-10.5 -7.2,-17.2 3.3,-10.6 7.7,-21 13.5,-31 5.8,-10 12.5,-19.1 20.1,-27.2 4.8,-5.1 12.4,-5.9 18.5,-2.4 l 13.6,7.8 c 6.8,3.9 15.2,3.3 22,-0.6 6.9,-3.9 11.7,-11 11.7,-18.9 v -17.2 z m 92.1,133.5 c 1.25017,-27.39707 -20.62444,-50.29257 -48.05,-50.29257 -27.42556,0 -49.30017,22.8955 -48.05,50.29257 -1.25017,27.39707 20.62444,50.29257 48.05,50.29257 27.42556,0 49.30017,-22.8955 48.05,-50.29257 z"
     id="path1"
     sodipodi:nodetypes="ccscssscccscccscccsccccsscscssccccscccscccsccscscccscsc"
     style="fill:#6e6e6e;fill-opacity:1"
     inkscape:label="gear" />
  <path
     d="m 224,0.09944376 c 70.6925,0 127.99994,57.30755624 127.99994,127.99999624 0,70.69245 -57.30744,128 -127.99994,128 -70.6925,0 -127.99994,-57.30755 -127.99994,-128 C 96.00006,57.407 153.3075,0.09944376 224,0.09944376 Z M 178.3,304.09944 h 91.4 c 11.8,0 23.4,1.2 34.5,3.3 -2.1,18.5 7.4,35.6 21.8,44.8 -16.6,10.6 -26.7,31.6 -20,53.3 4,12.9 9.4,25.5 16.4,37.6 7,12.1 15.2,23.1 24.4,33 15.7,16.9 39.6,18.4 57.2,8.7 v 0.9 c 0,9.2 2.7,18.5 7.9,26.3 H 29.7 c -16.4,0.1 -29.7,-13.2 -29.7,-29.6 0,-98.5 79.8,-178.3 178.3,-178.3 z"
     id="path1-8"
     inkscape:label="user"
     style="fill:#106298;fill-opacity:1" />
</svg>
